# xmcd
#
# Track frame offsets: 
#        150
#        14995
#        36722
#        60560
#        78475
#        95697
#        111700
#        133582
#        155937
#        174507
#        194425
#        215555
#
# Disc length: 3235 seconds
#
# Revision: 3
# Processed by: cddbd v1.5.2PL0 Copyright (c) Steve Scherf et al.
# Submitted via: ExactAudioCopyFreeDBPlugin 1.0
#
DISCID=c00ca10c
DTITLE=Gerd Köster - Alles im Griff
DYEAR=1994
DGENRE=pop
TTITLE0=Der Herr da im Spiegel
TTITLE1=Alles im Griff
TTITLE2=Nach dem Happy End
TTITLE3=Mit guter alter Liebe
TTITLE4=Herein !!
TTITLE5=Kinder vom Berg
TTITLE6=Geisterstunde
TTITLE7=Windmühlenalarm
TTITLE8=Waldmeister
TTITLE9=Platz an dr Sonn
TTITLE10=Wat is dann mit dir Sportsfreund
TTITLE11=Barfoos durch die Naach
EXTD=
EXTT0=
EXTT1=
EXTT2=
EXTT3=
EXTT4=
EXTT5=
EXTT6=
EXTT7=
EXTT8=
EXTT9=
EXTT10=
EXTT11=
PLAYORDER=
